<svg width="30" height="30" viewBox="0 0 30 30" fill="none" xmlns="http://www.w3.org/2000/svg">
<circle cx="15" cy="15" r="15" fill="#ECCE90" fill-opacity="0.3"/>
<path d="M22.5038 16.5932L23.981 9.28075C24.0877 8.75277 23.731 8.25 23.2497 8.25H10.9753L10.6888 6.67465C10.6174 6.28199 10.3103 6 9.95403 6H6.75C6.33578 6 6 6.37775 6 6.84375V7.40625C6 7.87225 6.33578 8.25 6.75 8.25H8.93384L11.1291 20.3239C10.6039 20.6637 10.25 21.3008 10.25 22.0312C10.25 23.1186 11.0335 24 12 24C12.9665 24 13.75 23.1186 13.75 22.0312C13.75 21.4802 13.5485 20.9824 13.2243 20.625H19.7757C19.4515 20.9824 19.25 21.4802 19.25 22.0312C19.25 23.1186 20.0335 24 21 24C21.9665 24 22.75 23.1186 22.75 22.0312C22.75 21.2518 22.3473 20.5782 21.7632 20.2592L21.9356 19.4057C22.0422 18.8778 21.6855 18.375 21.2042 18.375H12.8162L12.6116 17.25H21.7724C22.1226 17.25 22.4262 16.9774 22.5038 16.5932Z" fill="#ECCE90"/>
</svg>
