<svg width="152" height="94" viewBox="0 0 152 94" fill="none" xmlns="http://www.w3.org/2000/svg">
<path d="M16.4839 38.6009C13.6549 38.6009 11.5769 37.8873 10.2499 36.4603C8.92301 35.0332 8.25956 32.6673 8.25956 29.3625C8.25956 26.7337 8.69769 23.9046 9.57396 20.8752C10.4753 17.8459 11.9023 15.2546 13.8551 13.1015C15.833 10.9234 18.3366 9.83428 21.366 9.83428C23.2437 9.83428 24.7584 10.2474 25.9101 11.0736C27.0617 11.8998 27.6376 13.1641 27.6376 14.8666C27.6376 15.9431 27.4248 16.7943 26.9991 17.4202C26.5735 18.0211 25.9101 18.3216 25.0088 18.3216C24.1075 18.3216 23.3939 17.9961 22.8682 17.3451C23.3188 17.1198 23.7194 16.6692 24.0699 15.9932C24.4204 15.3172 24.5957 14.6162 24.5957 13.8901C24.5957 13.2142 24.4079 12.6634 24.0324 12.2378C23.6819 11.8121 23.106 11.5993 22.3049 11.5993C20.9779 11.5993 19.7136 12.5132 18.5119 14.3408C17.3101 16.1434 16.3337 18.4217 15.5826 21.1757C14.8566 23.9297 14.4936 26.5835 14.4936 29.1372C14.4936 31.0399 14.819 32.492 15.47 33.4935C16.1209 34.4949 17.2976 34.9957 19.0001 34.9957C20.4772 34.9957 21.8417 34.6702 23.0935 34.0192C24.3453 33.3683 25.4219 32.442 26.3232 31.2402L27.1869 31.6158C26.561 33.1931 25.6347 34.5075 24.4079 35.559C23.1811 36.6105 21.8667 37.3866 20.4647 37.8873C19.0627 38.363 17.7358 38.6009 16.4839 38.6009ZM30.7197 38.2253C29.2926 38.2253 28.1034 37.7371 27.152 36.7607C26.2006 35.7843 25.7249 34.2571 25.7249 32.1791C25.7249 30.3264 26.088 28.3861 26.814 26.3582C27.5651 24.3052 28.6667 22.5777 30.1188 21.1757C31.5959 19.7486 33.3485 19.0351 35.3764 19.0351C36.4029 19.0351 37.1665 19.2103 37.6672 19.5608C38.1679 19.9114 38.4183 20.3745 38.4183 20.9504V21.2132L38.8314 19.2229H44.2392L41.5353 31.9913C41.4352 32.3669 41.3851 32.7674 41.3851 33.1931C41.3851 34.2696 41.8983 34.8079 42.9248 34.8079C43.6258 34.8079 44.2267 34.4824 44.7274 33.8315C45.2532 33.1805 45.6663 32.3293 45.9667 31.2778H47.544C46.6176 33.9817 45.466 35.8219 44.089 36.7983C42.737 37.7496 41.3726 38.2253 39.9956 38.2253C38.9441 38.2253 38.0928 37.9374 37.4419 37.3616C36.816 36.7607 36.4404 35.897 36.3153 34.7703C35.5892 35.7968 34.7755 36.6355 33.8742 37.2865C32.998 37.9124 31.9464 38.2253 30.7197 38.2253ZM33.1607 34.5826C33.7866 34.5826 34.4 34.2946 35.0008 33.7188C35.6268 33.1179 36.0524 32.3043 36.2777 31.2778L38.0803 22.7905C38.0803 22.465 37.9551 22.1521 37.7048 21.8517C37.4544 21.5262 37.0663 21.3635 36.5406 21.3635C35.5391 21.3635 34.6378 21.9518 33.8367 23.1285C33.0355 24.2802 32.4096 25.6822 31.959 27.3346C31.5083 28.9619 31.283 30.4015 31.283 31.6533C31.283 32.9051 31.4582 33.7063 31.8087 34.0568C32.1843 34.4073 32.6349 34.5826 33.1607 34.5826ZM42.6006 47.3886C41.4239 47.3886 40.3974 47.0005 39.5212 46.2244C38.6198 45.4733 38.1692 44.5094 38.1692 43.3327C38.1692 42.2562 38.4446 41.3674 38.9954 40.6664C39.5462 39.9653 40.2597 39.402 41.136 38.9764C42.0123 38.5758 43.1764 38.1502 44.6285 37.6996L49.1726 16.2561C49.6733 13.8526 50.5496 12.1877 51.8014 11.2613C53.0782 10.335 54.4803 9.87184 56.0075 9.87184C57.1842 9.87184 58.2107 10.2599 59.0869 11.036C59.9882 11.7871 60.4389 12.751 60.4389 13.9277C60.4389 14.5035 60.4013 15.0168 60.3262 15.4674H58.5612C58.6112 14.9166 58.6363 14.5786 58.6363 14.4535C58.6363 14.0529 58.4986 13.7399 58.2232 13.5146C57.9478 13.2893 57.6098 13.1766 57.2092 13.1766C56.6835 13.1766 56.1702 13.4145 55.6695 13.8901C55.1688 14.3408 54.8057 15.1294 54.5804 16.2561L53.942 19.2229H56.6835L56.4206 20.725H53.6416L49.3228 41.0043C48.8221 43.4329 47.9583 45.0978 46.7316 45.9991C45.5048 46.9254 44.1278 47.3886 42.6006 47.3886ZM41.7369 44.0462C42.7383 44.0462 43.4518 43.0698 43.8774 41.117L44.3657 38.9389C43.0387 39.3895 42.0248 39.9028 41.3238 40.4786C40.5977 41.0795 40.2347 41.8556 40.2347 42.8069C40.2347 43.1074 40.3849 43.3828 40.6853 43.6331C40.9858 43.9085 41.3363 44.0462 41.7369 44.0462ZM61.3628 38.2253C59.5101 38.2253 58.0705 37.7496 57.044 36.7983C56.0176 35.8219 55.5043 34.3072 55.5043 32.2542C55.5043 30.5267 55.8423 28.6239 56.5183 26.5459C57.1943 24.4679 58.2958 22.6779 59.8231 21.1757C61.3503 19.6485 63.2906 18.8849 65.644 18.8849C68.398 18.8849 69.7749 20.0866 69.7749 22.4901C69.7749 23.8921 69.3744 25.1815 68.5732 26.3582C67.772 27.5349 66.708 28.4862 65.3811 29.2123C64.0542 29.9133 62.6396 30.3139 61.1375 30.414C61.0874 31.1651 61.0623 31.6658 61.0623 31.9162C61.0623 33.143 61.2752 33.9817 61.7008 34.4323C62.1264 34.858 62.8149 35.0708 63.7663 35.0708C65.1182 35.0708 66.2699 34.7578 67.2213 34.1319C68.1977 33.506 69.2617 32.5546 70.4134 31.2778H71.6902C68.9112 35.9095 65.4687 38.2253 61.3628 38.2253ZM61.4379 28.6114C62.3642 28.5614 63.2405 28.2359 64.0667 27.635C64.9179 27.0341 65.5939 26.2705 66.0946 25.3442C66.6204 24.4179 66.8833 23.4415 66.8833 22.415C66.8833 21.3885 66.5703 20.8752 65.9444 20.8752C65.0431 20.8752 64.1543 21.6639 63.2781 23.2412C62.4268 24.8184 61.8134 26.6085 61.4379 28.6114ZM75.7757 38.2253C73.923 38.2253 72.4834 37.7496 71.457 36.7983C70.4305 35.8219 69.9172 34.3072 69.9172 32.2542C69.9172 30.5267 70.2552 28.6239 70.9312 26.5459C71.6322 24.4679 72.7338 22.6779 74.236 21.1757C75.7632 19.6485 77.691 18.8849 80.0193 18.8849C81.5215 18.8849 82.5856 19.2103 83.2115 19.8613C83.8624 20.5122 84.1879 21.3384 84.1879 22.3399C84.1879 23.2161 84.0001 23.8921 83.6246 24.3678C83.249 24.8435 82.7733 25.0813 82.1975 25.0813C81.7719 25.0813 81.3337 24.9311 80.8831 24.6307C81.1835 23.8045 81.3337 23.0659 81.3337 22.415C81.3337 21.9393 81.2461 21.5637 81.0709 21.2883C80.8956 21.0129 80.6327 20.8752 80.2822 20.8752C79.5311 20.8752 78.7801 21.4886 78.029 22.7154C77.2779 23.9422 76.6645 25.4318 76.1888 27.1844C75.7131 28.9369 75.4753 30.5142 75.4753 31.9162C75.4753 33.143 75.6881 33.9817 76.1137 34.4323C76.5393 34.858 77.2278 35.0708 78.1792 35.0708C79.5311 35.0708 80.6828 34.7578 81.6342 34.1319C82.6106 33.506 83.6746 32.5546 84.8263 31.2778H86.1031C83.3241 35.9095 79.8816 38.2253 75.7757 38.2253ZM91.0899 17.1949C90.2637 17.1949 89.5627 16.907 88.9869 16.3312C88.4111 15.7553 88.1231 15.0543 88.1231 14.2281C88.1231 13.4019 88.4111 12.7009 88.9869 12.1251C89.5627 11.5242 90.2637 11.2238 91.0899 11.2238C91.9161 11.2238 92.6171 11.5242 93.193 12.1251C93.7938 12.7009 94.0943 13.4019 94.0943 14.2281C94.0943 15.0543 93.7938 15.7553 93.193 16.3312C92.6171 16.907 91.9161 17.1949 91.0899 17.1949ZM88.5362 38.2253C87.3345 38.2253 86.3581 37.8498 85.607 37.0987C84.881 36.3476 84.5179 35.221 84.5179 33.7188C84.5179 33.0929 84.6181 32.2792 84.8184 31.2778L87.3721 19.2229H92.7799L90.076 31.9913C89.9758 32.3669 89.9258 32.7674 89.9258 33.1931C89.9258 33.6938 90.0384 34.0568 90.2637 34.2821C90.5141 34.4824 90.9147 34.5826 91.4655 34.5826C92.1915 34.5826 92.8675 34.2821 93.4934 33.6813C94.1193 33.0554 94.57 32.2542 94.8454 31.2778H96.4226C95.4963 33.9817 94.3071 35.8219 92.855 36.7983C91.4029 37.7496 89.9633 38.2253 88.5362 38.2253ZM98.5483 38.2253C97.3465 38.2253 96.3701 37.8498 95.619 37.0987C94.893 36.3476 94.53 35.221 94.53 33.7188C94.53 33.0929 94.6301 32.2792 94.8304 31.2778L97.0837 20.725H95.8444L96.1448 19.2229H97.3841L98.5107 14.0404L104.069 13.2893L102.792 19.2229H105.045L104.745 20.725H102.491L100.088 31.9913C99.9879 32.3669 99.9378 32.7674 99.9378 33.1931C99.9378 33.6938 100.05 34.0568 100.276 34.2821C100.526 34.4824 100.927 34.5826 101.478 34.5826C102.204 34.5826 102.88 34.2821 103.505 33.6813C104.131 33.0554 104.582 32.2542 104.857 31.2778H106.435C105.508 33.9817 104.319 35.8219 102.867 36.7983C101.415 37.7496 99.9753 38.2253 98.5483 38.2253ZM110.325 38.1502C108.473 38.1502 107.008 37.6745 105.932 36.7232C104.855 35.7718 104.317 34.2696 104.317 32.2166C104.317 30.4891 104.655 28.5989 105.331 26.5459C106.007 24.4679 107.108 22.6779 108.635 21.1757C110.163 19.6485 112.115 18.8849 114.494 18.8849C117.448 18.8849 119.038 20.5748 119.263 23.9547C119.814 23.8295 120.302 23.5291 120.728 23.0534C121.154 22.5527 121.554 21.9894 121.93 21.3635H123.131C122.455 22.7154 121.855 23.7794 121.329 24.5556C120.803 25.3067 120.115 25.92 119.263 26.3957C119.113 28.7491 118.625 30.8146 117.799 32.5922C116.998 34.3698 115.946 35.7467 114.644 36.7232C113.342 37.6745 111.903 38.1502 110.325 38.1502ZM111.828 34.7703C112.754 34.7703 113.618 34.0192 114.419 32.5171C115.22 31.0149 115.771 29.1622 116.071 26.959C115.47 26.7337 115.17 26.1704 115.17 25.2691C115.17 24.2927 115.52 23.6417 116.221 23.3163C116.171 22.5151 116.034 21.9643 115.808 21.6639C115.608 21.3384 115.27 21.1757 114.794 21.1757C113.968 21.1757 113.179 21.7765 112.428 22.9783C111.677 24.155 111.064 25.5946 110.588 27.297C110.138 28.9745 109.912 30.4516 109.912 31.7284C109.912 32.9302 110.05 33.7438 110.325 34.1695C110.601 34.57 111.101 34.7703 111.828 34.7703Z" fill="url(#paint0_linear)"/>
<path d="M59.9017 72.0242C58.3745 72.0242 57.2479 71.6236 56.5218 70.8225C55.8208 69.9963 55.4703 68.9823 55.4703 67.7806C55.4703 67.2548 55.5329 66.6665 55.6581 66.0155C55.7833 65.3396 55.9085 64.6886 56.0336 64.0627C56.1839 63.4368 56.284 63.0362 56.3341 62.861C56.5344 61.9847 56.7221 61.121 56.8974 60.2697C57.0726 59.4185 57.1603 58.73 57.1603 58.2042C57.1603 56.9274 56.7096 56.289 55.8083 56.289C55.1574 56.289 54.5815 56.6144 54.0808 57.2654C53.5801 57.8913 53.1795 58.7175 52.8791 59.744L50.3254 71.7989H44.9176L47.659 58.8427C47.7341 58.5422 47.7717 58.2293 47.7717 57.9038C47.7717 56.8022 47.3962 56.2514 46.6451 56.2514C45.9441 56.2514 45.3307 56.5769 44.8049 57.2278C44.3042 57.8537 43.9036 58.6924 43.6032 59.744L41.0495 71.7989H35.6417L39.6224 53.0217H45.0302L44.6171 54.9746C45.894 53.5475 47.4212 52.834 49.1988 52.834C51.4019 52.834 52.6913 53.9105 53.0669 56.0636C54.4438 53.9356 56.1839 52.8715 58.2869 52.8715C59.5637 52.8715 60.5777 53.222 61.3288 53.923C62.0799 54.6241 62.4554 55.6881 62.4554 57.1152C62.4554 57.8412 62.3678 58.6549 62.1925 59.5562C62.0173 60.4325 61.7669 61.509 61.4415 62.7859C61.2412 63.562 61.0534 64.3256 60.8781 65.0767C60.7279 65.8027 60.6528 66.3786 60.6528 66.8042C60.6528 67.3049 60.7655 67.693 60.9908 67.9684C61.2161 68.2437 61.6042 68.3814 62.155 68.3814C62.9061 68.3814 63.5069 68.1186 63.9576 67.5928C64.4082 67.042 64.8589 66.2033 65.3096 65.0767H66.8868C65.9605 67.8307 64.8839 69.6833 63.6572 70.6347C62.4554 71.561 61.2036 72.0242 59.9017 72.0242ZM71.5794 50.9938C70.7532 50.9938 70.0521 50.7059 69.4763 50.1301C68.9005 49.5542 68.6126 48.8532 68.6126 48.027C68.6126 47.2008 68.9005 46.4998 69.4763 45.924C70.0521 45.3231 70.7532 45.0227 71.5794 45.0227C72.4055 45.0227 73.1066 45.3231 73.6824 45.924C74.2833 46.4998 74.5837 47.2008 74.5837 48.027C74.5837 48.8532 74.2833 49.5542 73.6824 50.1301C73.1066 50.7059 72.4055 50.9938 71.5794 50.9938ZM69.0257 72.0242C67.8239 72.0242 66.8475 71.6487 66.0964 70.8976C65.3704 70.1465 65.0074 69.0199 65.0074 67.5177C65.0074 66.8918 65.1075 66.0781 65.3078 65.0767L67.8615 53.0217H73.2693L70.5654 65.7902C70.4652 66.1657 70.4152 66.5663 70.4152 66.9919C70.4152 67.4927 70.5278 67.8557 70.7532 68.081C71.0035 68.2813 71.4041 68.3814 71.9549 68.3814C72.6809 68.3814 73.3569 68.081 73.9828 67.4801C74.6087 66.8542 75.0594 66.0531 75.3348 65.0767H76.9121C75.9857 67.7806 74.7965 69.6207 73.3444 70.5972C71.8923 71.5485 70.4527 72.0242 69.0257 72.0242ZM80.8027 71.9491C78.9501 71.9491 77.4855 71.4734 76.4089 70.522C75.3323 69.5707 74.7941 68.0685 74.7941 66.0155C74.7941 64.288 75.132 62.3978 75.808 60.3448C76.484 58.2668 77.5856 56.4767 79.1128 54.9746C80.64 53.4474 82.5928 52.6838 84.9713 52.6838C87.9255 52.6838 89.5153 54.3737 89.7407 57.7536C90.2915 57.6284 90.7797 57.328 91.2053 56.8523C91.6309 56.3516 92.0315 55.7882 92.407 55.1623H93.6088C92.9328 56.5143 92.3319 57.5783 91.8062 58.3545C91.2804 59.1055 90.5919 59.7189 89.7407 60.1946C89.5905 62.548 89.1022 64.6135 88.2761 66.3911C87.4749 68.1686 86.4234 69.5456 85.1215 70.522C83.8196 71.4734 82.38 71.9491 80.8027 71.9491ZM82.3049 68.5692C83.2313 68.5692 84.095 67.8181 84.8962 66.316C85.6973 64.8138 86.2481 62.9611 86.5486 60.7579C85.9477 60.5326 85.6472 59.9693 85.6472 59.068C85.6472 58.0916 85.9978 57.4406 86.6988 57.1152C86.6487 56.314 86.511 55.7632 86.2857 55.4628C86.0854 55.1373 85.7474 54.9746 85.2717 54.9746C84.4455 54.9746 83.6569 55.5754 82.9058 56.7772C82.1547 57.9539 81.5413 59.3935 81.0656 61.0959C80.615 62.7733 80.3896 64.2505 80.3896 65.5273C80.3896 66.7291 80.5273 67.5427 80.8027 67.9684C81.0781 68.3689 81.5789 68.5692 82.3049 68.5692Z" fill="url(#paint1_linear)"/>
<path d="M96.5973 94.0001H32.0342C25.2795 94.0001 19.7894 90.3852 19.7894 85.9377V83.006C19.7894 81.7922 21.2855 80.8071 23.1289 80.8071H105.503C107.346 80.8071 108.842 81.7922 108.842 83.006V85.9377C108.842 90.3852 103.352 94.0001 96.5973 94.0001Z" fill="url(#paint2_linear)"/>
<path d="M129.818 16.5242V27.4149C135.857 27.4149 140.768 32.2994 140.768 38.3057C140.768 41.2462 139.641 43.9634 137.522 46.0326C135.507 48.0746 132.774 49.1964 129.818 49.1964H126.735C125.503 52.7686 124.019 56.259 122.059 59.5208C121.944 59.7169 121.807 59.8966 121.676 60.0871H129.818C135.737 60.0871 141.239 57.8055 145.264 53.7324C149.425 49.6647 151.719 44.1921 151.719 38.3057C151.719 26.2932 141.896 16.5242 129.818 16.5242Z" fill="url(#paint3_linear)"/>
<path d="M115.476 63.8215L115.441 63.8633L115.413 63.9098C112.686 68.3286 109.428 72.325 105.751 75.8597H19.7579C8.06676 64.5854 0.751086 48.8118 0.751086 31.3408V5.22346C0.751086 2.75531 2.75581 0.751086 5.2263 0.751086H120.205C122.675 0.751086 124.68 2.75531 124.68 5.22346V31.3408C124.68 42.5712 121.644 53.6018 115.896 63.2282C115.767 63.4429 115.629 63.6398 115.476 63.8215Z" stroke="url(#paint4_linear)" stroke-width="1.50217"/>
<defs>
<linearGradient id="paint0_linear" x1="65.3444" y1="0" x2="65.3444" y2="47.3184" gradientUnits="userSpaceOnUse">
<stop offset="0.15625" stop-color="#BF953F"/>
<stop offset="0.510417" stop-color="#B38728"/>
<stop offset="1" stop-color="#FCF6BA"/>
</linearGradient>
<linearGradient id="paint1_linear" x1="65.3445" y1="33.7989" x2="65.3445" y2="81.1173" gradientUnits="userSpaceOnUse">
<stop offset="0.15625" stop-color="#BF953F"/>
<stop offset="0.588542" stop-color="#B38728"/>
<stop offset="1" stop-color="#FCF6BA"/>
</linearGradient>
<linearGradient id="paint2_linear" x1="64.3157" y1="80.8071" x2="64.3157" y2="94.0001" gradientUnits="userSpaceOnUse">
<stop offset="0.15625" stop-color="#BF953F"/>
<stop offset="1" stop-color="#FCF6BA"/>
</linearGradient>
<linearGradient id="paint3_linear" x1="136.698" y1="16.5242" x2="136.698" y2="60.0871" gradientUnits="userSpaceOnUse">
<stop offset="0.15625" stop-color="#BF953F"/>
<stop offset="0.510417" stop-color="#FCF6BA"/>
<stop offset="0.822917" stop-color="#B38728"/>
</linearGradient>
<linearGradient id="paint4_linear" x1="62.7156" y1="0" x2="62.7156" y2="76.6107" gradientUnits="userSpaceOnUse">
<stop offset="0.15625" stop-color="#BF953F"/>
<stop offset="0.510417" stop-color="#FCF6BA"/>
<stop offset="0.822917" stop-color="#B38728"/>
</linearGradient>
</defs>
</svg>
